<svg xmlns="http://www.w3.org/2000/svg" viewBox="0 0 256 366" fill="none">
  <path fill="url(#astro-a)" d="M166.715 360.476c-14.538-10.075-19.248-32.058-14.137-49.675 7.238 14.045 18.67 20.358 31.543 24.396 20.258 6.358 40.145 5.044 58.942-5.905a36.41 36.41 0 0 0 5.09-3.727c.576 16.672-10.47 35.66-26.084 44.89-5.22 3.086-11.003 5.268-14.137 5.545-18.714.01-30.698-7.992-41.217-15.524Z"/>
  <path fill="#fff" d="M256.61 282.658c-8.753-19.822-28.244-32.162-47.875-37.135a103.38 103.38 0 0 0-39.22-2.684c-1.139.157-2.264.383-3.654.638l1.666 3.373c14.39 26.775 18.675 55.03 11.36 84.574-.543 2.194-1.182 4.363-1.854 6.527-.197.634-.01.814.602 1.043 6.718 2.51 13.627 4.3 20.798 4.938 24.728 2.2 46.72-4.724 62.816-24.535 7.09-8.735 11.485-18.868 10.558-30.07-.381-4.61-1.942-9.303-5.102-14.072a8.22 8.22 0 0 0-10.095 7.403Z"/>
  <path fill="url(#astro-b)" d="M90.5 0C92.18 25.768 79.076 44.09 60.553 59.69 42.71 74.708 22.476 85.267 5.27 100.17c-4.776 4.136-6.54 8.992-5.27 15.216 1.853-1.67 3.447-3.219 5.163-4.613C30.9 89.67 59.773 77.792 92.32 77.31c27.375-.405 51.15 8.816 71.285 28.18 6.64 6.392 12.234 13.742 18.349 20.617.43.483.892.938 1.586 1.668-.498-7.5-.757-14.546-1.462-21.546-3.59-35.624-18.33-66.067-44.05-90.704C124.762 3.018 109.4-3.23 90.5 0Z"/>
  <defs>
    <linearGradient id="astro-a" x1="175.987" y1="283.584" x2="241.407" y2="368.304" gradientUnits="userSpaceOnUse">
      <stop stop-color="#D83333"/>
      <stop offset="1" stop-color="#F041FF"/>
    </linearGradient>
    <linearGradient id="astro-b" x1="5" y1="0" x2="183" y2="128" gradientUnits="userSpaceOnUse">
      <stop stop-color="#FF5D01"/>
      <stop offset="1" stop-color="#FF8836"/>
    </linearGradient>
  </defs>
</svg>
