<svg xmlns="http://www.w3.org/2000/svg" viewBox="0 0 256 332" fill="none">
  <path d="M156.418 9.106C147.228 2.966 137.756.053 128.01 0c-2.55 8.702-7.098 15.483-13.144 21.558-7.98 8.02-17.41 14.326-26.856 20.646-4.72 3.158-9.448 6.326-13.982 9.644C59.5 62.08 35.988 78.1 20.89 103.82 11.04 120.586 5.182 139.084 2.218 158.56c-1.46 9.592-2.228 19.518-2.218 29.374C.032 251.728 31.88 305.4 82.626 326.67c19.184 8.048 39.76 10.704 53.408 5.33 69.96-27.546 120.026-92.326 119.966-169.072-.024-28.618-7.34-55.396-25.072-82.51-10.378-15.882-40.74-46.91-74.51-71.312z" fill="#0678BE"/>
  <path d="M135.83 96.254c-8.384-5.878-22.758-12.496-22.758-12.496s-46.37 28.382-51.756 69.694c-2.694 20.66 4.086 39.25 21.166 46.896 26.164 11.714 51.37-5.614 56.198-31.618 4.854-26.13-2.85-72.476-2.85-72.476z" fill="#fff"/>
  <path d="M183.42 155.19c-3.226-3.766-7.756-7.27-13.248-10.506-.028-.016-18.024-10.53-18.024-10.53s-4.15 36.206 1.886 59.762c4.498 17.56 14.536 29.472 30.762 30.482 17.97 1.12 33.52-14.082 33.244-34.162-.25-18.168-13.66-31.13-34.62-35.046z" fill="#fff"/>
  <path d="M95.534 235.19c-13.354-.87-24.886-8.37-30.466-20.682-2.55-5.624-3.73-11.61-3.52-17.872.032-.976-.31-1.418-1.176-1.792-7.076-3.054-14.46-4.218-22.118-3.332-13.016 1.506-22.4 8.57-26.994 20.984-5.332 14.416-1.05 30.766 10.78 39.832 8.082 6.194 17.308 8.548 27.366 7.4 16.888-1.928 30.082-10.39 39.544-24.544 2.05-3.064 3.818-6.31 6.584-10.936v10.942z" fill="#fff"/>
</svg>
