<svg xmlns="http://www.w3.org/2000/svg" viewBox="0 0 256 319" fill="none">
  <path d="M213.803 0l1.98 48.532-20.6-17.218-15.778 18.79L0 16.592V302.3l178.397 16.7L256 0z" fill="#FF4785"/>
  <path d="M188.03 141.462c0 4.753-29.392 6.634-29.392 1.467 0-32.827-17.678-50.08-48.46-50.08-28.803 0-48.46 15.636-48.46 39.095 0 40.912 55.168 41.632 55.168 72.035 0 9.86-4.507 15.543-14.867 15.543-13.487 0-19.036-6.882-18.345-30.357 0-3.872-30.07-5.141-31.102.336-2.477 42.94 23.5 55.233 49.793 55.233 25.26 0 46.944-13.477 46.944-37.87 0-43.802-56.2-42.65-56.2-72.746 0-13.364 9.895-15.163 15.555-15.163 6.694 0 16.715 1.158 16.715 22.507z" fill="#fff"/>
  <path d="M180.476 3.85l6.1-3.85L215.38 0l-1.672 43.265-16.06-13.678-17.172 17.528z" fill="#fff"/>
</svg>
