<svg xmlns="http://www.w3.org/2000/svg" viewBox="0 0 256 256" fill="none">
  <rect width="256" height="256" rx="20" fill="#3178C6"/>
  <path d="M150.518 200.475v27.62c4.492 2.302 9.805 4.028 15.938 5.179 6.133 1.15 12.597 1.726 19.393 1.726 6.622 0 12.914-.633 18.874-1.899 5.96-1.266 11.187-3.352 15.678-6.257 4.492-2.906 8.048-6.718 10.669-11.437 2.621-4.72 3.932-10.554 3.932-17.504 0-4.95-.722-9.287-2.165-13.012-1.444-3.724-3.52-7.046-6.23-9.966-2.71-2.92-5.96-5.525-9.753-7.816-3.792-2.29-8.048-4.405-12.767-6.345-3.435-1.382-6.518-2.72-9.25-4.013-2.733-1.294-5.06-2.605-6.982-3.932-1.922-1.327-3.406-2.763-4.452-4.308-1.046-1.544-1.569-3.32-1.569-5.327 0-1.833.436-3.493 1.307-4.98.87-1.487 2.108-2.777 3.714-3.87 1.606-1.092 3.552-1.94 5.838-2.542 2.286-.603 4.863-.904 7.73-.904 2.05 0 4.214.173 6.493.518 2.28.346 4.561.895 6.844 1.648 2.282.753 4.45 1.69 6.505 2.81 2.054 1.122 3.898 2.427 5.53 3.916v-25.688c-4.05-1.614-8.478-2.79-13.282-3.527-4.805-.737-10.28-1.106-16.425-1.106-6.564 0-12.8.662-18.709 1.985-5.909 1.323-11.098 3.435-15.565 6.337-4.468 2.901-8.006 6.67-10.613 11.305-2.607 4.636-3.91 10.264-3.91 16.885 0 12.183 6.929 21.99 20.786 29.42 3.435 1.845 6.696 3.527 9.782 5.044 3.087 1.517 5.78 3.023 8.078 4.517 2.299 1.494 4.117 3.081 5.454 4.76 1.337 1.68 2.006 3.606 2.006 5.78 0 1.717-.407 3.263-1.22 4.638-.813 1.375-2.006 2.558-3.58 3.549-1.573.99-3.493 1.754-5.76 2.291-2.267.537-4.834.806-7.7.806-5.089 0-10.157-1.018-15.203-3.054-5.046-2.036-9.61-5.044-13.692-9.024zM106.583 136.19H141V114H52v22.19h34.227V235h20.356z" fill="#fff"/>
</svg>
