<svg xmlns="http://www.w3.org/2000/svg" viewBox="0 0 165 165" fill="none">
  <path d="M120.831 57.1432L84.6931 109.862C84.3344 110.386 83.8492 110.813 83.2823 111.103C82.7155 111.393 82.0849 111.537 81.4487 111.52C80.8125 111.503 80.1907 111.327 79.6405 111.008C79.0903 110.689 78.6291 110.238 78.2993 109.697L58.2246 76.5116C57.578 75.4432 57.5948 74.1096 58.2681 73.0568L66.7989 59.6712C68.1413 57.5664 71.2994 57.7816 72.3423 59.0513L81.0619 70.2581C82.105 71.5279 85.2628 71.7431 86.6053 69.6383L99.8662 48.8392C101.263 46.6474 104.607 46.9517 105.567 48.3816L120.634 55.0228C121.104 55.1956 120.631 56.9505 120.831 57.1432Z" fill="#FCC72B"/>
  <path d="M120.831 57.1432L84.6931 109.862C84.3344 110.386 83.8492 110.813 83.2823 111.103C82.7155 111.393 82.0849 111.537 81.4487 111.52C80.8125 111.503 80.1907 111.327 79.6405 111.008C79.0903 110.689 78.6291 110.238 78.2993 109.697L58.2246 76.5116C57.578 75.4432 57.5948 74.1096 58.2681 73.0568L66.7989 59.6712C68.1413 57.5664 71.2994 57.7816 72.3423 59.0513L81.0619 70.2581C82.105 71.5279 85.2628 71.7431 86.6053 69.6383L99.8662 48.8392C101.263 46.6474 104.607 46.9517 105.567 48.3816" fill="url(#vitest-a)"/>
  <path d="M82.0157 28.0146L134.627 49.3782C137.625 50.5942 137.724 54.7802 134.783 56.1335L81.1983 80.7972C80.3265 81.1979 79.3267 81.2162 78.4414 80.8482L26.2195 59.1554C23.3612 57.9651 23.2288 53.9874 26.0042 52.6147L78.6149 26.5903C79.6579 26.0742 80.8629 26.0455 82.0157 28.0146Z" fill="#729B1B"/>
  <path d="M82.0157 28.0146L134.627 49.3782C137.625 50.5942 137.724 54.7802 134.783 56.1335L81.1983 80.7972C80.3265 81.1979 79.3267 81.2162 78.4414 80.8482L26.2195 59.1554C23.3612 57.9651 23.2288 53.9874 26.0042 52.6147L78.6149 26.5903C79.6579 26.0742 80.8629 26.0455 82.0157 28.0146Z" fill="url(#vitest-b)"/>
  <defs>
    <linearGradient id="vitest-a" x1="50.3225" y1="42.0869" x2="98.6808" y2="113.399" gradientUnits="userSpaceOnUse">
      <stop stop-color="#41D1FF"/>
      <stop offset="1" stop-color="#BD34FE"/>
    </linearGradient>
    <linearGradient id="vitest-b" x1="50.3225" y1="42.0869" x2="98.6808" y2="113.399" gradientUnits="userSpaceOnUse">
      <stop stop-color="#41D1FF"/>
      <stop offset="1" stop-color="#BD34FE"/>
    </linearGradient>
  </defs>
</svg>
